<svg xmlns="http://www.w3.org/2000/svg" viewBox="0 0 840 786">
    <defs>
        <style>
            .cls-1 {
                fill: #fefefe;
            }

            .cls-2 {
                fill: #29f09b;
            }

            .cls-3 {
                fill: #02a0f8;
            }

            .cls-4 {
                fill: #28ed9f;
            }

            .cls-5 {
                fill: #26eaa2;
            }

            .cls-6 {
                fill: #20ddb1;
            }

            .cls-7 {
                fill: #20deb1;
            }

            .cls-8 {
                fill: #22e1ad;
            }

            .cls-9 {
                fill: #25e7a6;
            }

            .cls-10 {
                fill: #1dd8b7;
            }

            .cls-11 {
                fill: #0ab0e6;
            }

            .cls-12 {
                fill: #1ad1bf;
            }

            .cls-13 {
                fill: #0bb3e2;
            }

            .cls-14 {
                fill: #23e4a9;
            }

            .cls-15 {
                fill: #1cd5bb;
            }

            .cls-16 {
                fill: #0eb9dc;
            }

            .cls-17 {
                fill: #08acea;
            }

            .cls-18 {
                fill: #0db6df;
            }

            .cls-19 {
                fill: #18cdc4;
            }

            .cls-20 {
                fill: #03a3f5;
            }

            .cls-21 {
                fill: #10bdd7;
            }

            .cls-22 {
                fill: #17cbc6;
            }

            .cls-23 {
                fill: #15c8ca;
            }

            .cls-24 {
                fill: #0fbcd8;
            }

            .cls-25 {
                fill: #16c8ca;
            }

            .cls-26 {
                fill: #06a9ee;
            }

            .cls-27 {
                fill: #0eb8dd;
            }

            .cls-28 {
                fill: #0bb3e3;
            }

            .cls-29 {
                fill: #05a6f1;
            }

            .cls-30 {
                fill: #11bfd4;
            }

            .cls-31 {
                fill: #09b0e6;
            }

            .cls-32 {
                fill: #14c5cd;
            }

            .cls-33 {
                fill: #13c3cf;
            }

            .cls-34 {
                fill: #13c2d1;
            }

            .cls-35 {
                fill: #1fdcb3;
            }

            .cls-36 {
                fill: #1dd9b7;
            }

            .cls-37 {
                fill: #1dd8b8;
            }

            .cls-38 {
                fill: #1ed9b6;
            }

            .cls-39 {
                fill: #1bd3bd;
            }

            .cls-40 {
                fill: #1cd5ba;
            }

            .cls-41 {
                fill: #14c6cd;
            }

            .cls-42 {
                fill: #16c9c9;
            }
        </style>
    </defs>
    <g id="Capa_2" data-name="Capa 2">
        <g id="Capa_1-2" data-name="Capa 1">
            <path class="cls-2"
                d="M772,204.89c24.57,12.14,39.57,31.85,45.89,58.31a78.67,78.67,0,0,1,2,18.32q0,142.17,0,284.34c0,36.4-21.86,67.77-55.84,80.57a85.57,85.57,0,0,1-30.31,5.4c-26.33,0-52.65.1-79-.09-4.36,0-5.88.84-5.84,5.63.22,34,.1,68,.09,101.94,0,1.75,0,3.51,0,6.44-5.9-4.38-10.92-8.09-15.92-11.83l-93.58-70a3.17,3.17,0,0,1-.58-.79c-1-1.77,0-3.18.78-4.66,18.46-36.77,36.17-73.9,54.4-110.79,13.43-27.17,26.6-54.47,39.92-81.7q23.47-48,47-96.06,21.43-43.74,42.78-87.54c15.34-31.62,31-63.07,46.2-94.76A5.21,5.21,0,0,1,772,204.89Z" />
            <path class="cls-3"
                d="M99.73,480.09c-24.75-1.5-44.51-12.66-60-31.55-13-15.78-18.92-34.12-18.91-54.54q.07-141.45.06-282.9c.06-48.6,37.65-86.16,86.25-86.23q116-.18,231.94,0c1,0,2,.13,3,.19,1.45,2.12-.06,3.83-.86,5.55-7.5,16.16-15.55,32.06-23.38,48.06-.74,1.51-1.38,3.07-3.25,3.54a50.11,50.11,0,0,1-8.48.28q-97.32,0-194.65,0c-2.65,0-5.33-.24-7.9.69-1.28.36-2.6.6-3.88,1-12.53,3.45-19.93,12.93-20,26q-.11,55.44,0,110.87c0,56.94.43,113.87-.23,170.8-.25,21.57,14.94,31.3,31.08,30.7,9.47-.35,19-.07,28.46-.05,2.33,0,4.67-.17,6.94.54,3.63,2.16,1.17,4.68.15,6.81q-11.29,23.76-23,47.32c-.71,1.42-1,3.28-3.19,3.35C113.11,480.24,106.41,480.91,99.73,480.09Z" />
            <path class="cls-4"
                d="M772,204.89a63.35,63.35,0,0,1-2.51,7c-12.92,26.3-25.94,52.54-38.86,78.84q-22.79,46.38-45.44,92.82-20.83,42.6-41.62,85.23-22.69,46.43-45.43,92.83-21.37,43.73-42.72,87.47-8.29,17-16.51,34.07L514.76,665c2.71-8.77,7.31-16.71,11.34-24.85,13-26.36,25.88-52.82,38.77-79.24,8-16.42,16.51-32.6,24-49.28,12.76-10,24.47-21,33.82-34.33,17.43-24.88,25.94-52.57,26.15-82.87,0-1.83.13-3.66.19-5.48q23.9-49.17,48-98.2c14.07-28.69,27.84-57.52,42.11-86.11,1.33-2.64,3.12-5.17,2.81-8.38A71.73,71.73,0,0,1,772,204.89Z" />
            <path class="cls-5"
                d="M742,196.3c.86.78,1.75,1.47,1,2.89s-1.23,3.08-2,4.56q-19.75,40.08-39.52,80.15-22.11,45-44.1,90.09c-2.53,5.15-3.47,11.2-8.41,15l0-52c17.07-35.46,34.8-70.6,51.7-106.15,5-10.5,10.38-20.82,15.55-31.23a11.32,11.32,0,0,1,2.69-3.55A201.59,201.59,0,0,1,742,196.3Z" />
            <path class="cls-6"
                d="M514,480l-.37.17-.39-.13c-8.21.91-16.45.17-24.65.42-2.54,0-2.48-1.67-2.16-3.42a15.06,15.06,0,0,1,1.72-4.13c7.26-14,13.39-28.54,20.72-42.5,1.08-2,2.43-4.08.88-6.49.17-1.75,1.62-1.87,2.85-2.24,11.12-3.26,18.06-10.36,20.16-21.91.21-1.14.41-2.29,1.51-3,2.2-.42,2.64-2.4,3.39-4,15.5-32.82,32-65.13,47.64-97.9,1-2.11,2-4.26,4-5.61,1.36-.91,2.17-.48,2.14,1.24q0,16.5,0,33c-2.26,4.94-4.81,9.76-7.26,14.62-11,21.87-21.56,44-32.3,66-11.1,22.74-22.64,45.28-33.25,68.27C517.38,475.09,516.33,478,514,480Z" />
            <path class="cls-5"
                d="M588.85,511.67c.45,2.44-.5,4.51-1.55,6.64Q568,557.37,548.74,596.46c-10.44,21.31-20.7,42.7-31.08,64-.78,1.6-1.22,3.48-2.9,4.54L496,651.66c2.06-6.12,5.21-11.77,8.07-17.49,13-25.84,25.29-52,38.12-77.89,4.25-8.58,9.33-16.88,11.76-26.31A205,205,0,0,0,588.85,511.67Z" />
            <path class="cls-7"
                d="M457,538.08h28c1.41,2.12-.09,3.83-.91,5.53-15.19,31.4-30.33,62.81-46,94a12.53,12.53,0,0,0-1.31,2.68c-2.14,10.25-8.91,12.58-18.3,11.23a36.42,36.42,0,0,0-10.42.13H379l-.12-.78.57-.52c5.73-1.49,11.58-.69,17.36-.61,4.11.06,6.28-1.43,8-5.12,15.89-34.22,33.28-67.73,49.34-101.88C454.92,541.08,455.56,539.34,457,538.08Z" />
            <path class="cls-8"
                d="M514,480c2.17-5,4.14-10.14,6.55-15,13.11-26.75,26.4-53.41,39.5-80.16,8.78-17.92,17.29-36,26.06-53.9,1.08-2.23,1.32-5.41,4.72-5.89,1.16,1.1.61,2.51.61,3.77.05,12.49,0,25,.06,37.47a14.86,14.86,0,0,1-1.93,7.08c-10.33,20.34-20.23,40.89-30.2,61.4C553.08,447.61,547.1,460.61,540,473A60.48,60.48,0,0,1,514,480Z" />
            <path class="cls-9"
                d="M554,530c2,1.89.59,3.69-.24,5.41Q546,551.54,538.1,567.63c-11.19,22.79-22.47,45.55-33.63,68.37-2.61,5.33-4.2,11.2-8.44,15.66l-44,0a.93.93,0,0,1,.42-1.28,4.53,4.53,0,0,1,1.43-.51,138.53,138.53,0,0,1,14-.16c3,.05,4.95-.93,6.3-3.77,16.44-34.77,33.95-69,50.38-103.79a9.75,9.75,0,0,0,1.23-5.27C535.23,534.9,544.68,532.77,554,530Z" />
            <path class="cls-9"
                d="M718.92,196.09a37.94,37.94,0,0,1-1.37,3.7c-11.74,23.84-23.56,47.64-35.23,71.5-10,20.43-19.79,40.95-29.75,61.39-.81,1.66-1,4-3.59,4.34V288c14-28.71,27.95-57.48,42.14-86.11,1-2.08,1.88-4.29,3.81-5.79Z" />
            <path class="cls-10"
                d="M457,538.08c-1.08,6-4.34,11.1-6.91,16.42-12.95,26.78-26.25,53.4-39.38,80.1-2.13,4.32-4.27,8.65-6,13.14-1,2.72-2.6,3.3-5.23,3.24-6.82-.17-13.65-.07-20.47-.08-1.44-1.52-.71-3.12,0-4.62,1.29-2.88,2.33-5.87,3.77-8.68,13-25.43,24.9-51.42,37.91-76.86,2.8-5.47,4.86-11.29,7.84-16.67,1.57-2.84.6-3.78-2.46-3.91-2.4-.1-5.39,1.26-7-1.94Z" />
            <path class="cls-11"
                d="M191.94,583.63c-.27-14.56-1-29.11,0-43.67,3.45-4.15,5.33-9.18,7.63-14,14.39-29.84,28.82-59.65,43.75-89.21,1-2,1.29-5.55,5.21-4.53,1,1.49.84,3.18.85,4.84q0,17.94,0,35.9a13.17,13.17,0,0,1-1.29,6.27c-17.13,33.06-32.7,66.88-49.29,100.21-1,2.07-1.76,4.44-3.62,5.9C193.12,587,191.23,587.46,191.94,583.63Z" />
            <path class="cls-12"
                d="M338.09,651.64c-3.81.18-7.64.65-11.39-.57.19-.29.42-.7.68-.69,6.71.28,8.43-4.81,10.83-9.57,12.75-25.24,24.67-50.88,37.42-76.13,3.29-6.52,6.05-13.33,9.52-19.77,1.68-3.14,1.74-4.94-2.58-4.79-1.34,0-3.16.23-3.49-1.9l32.91-.11c1.82,2.44.09,4.48-.92,6.44-10.07,19.69-19.31,39.79-29.31,59.52-7.15,14.1-13.54,28.55-20.74,42.61-.95,1.84-1.39,4.23-4,4.73C350.71,651.55,344.4,651.12,338.09,651.64Z" />
            <path class="cls-8"
                d="M453,650.9l-1,.05c-4.93,1.14-10-.09-14.91.68h-29c5.87-1.57,11.87-.68,17.79-.58,3.9.06,5.78-1.44,6.94-4.83a56.09,56.09,0,0,1,2.74-6.39c13.3-27,26.68-53.94,39.93-81,3.35-6.84,6.34-13.87,9.5-20.81l22,0c1.43,2.13-.1,3.85-1,5.51-7.36,14.18-13.72,28.83-21,43-10.15,19.84-19.26,40.19-29.5,60C454.76,648.12,454.25,649.73,453,650.9Z" />
            <path class="cls-13"
                d="M191.94,583.63c1.12,4,2.4,1.56,3.22,0,4-7.84,7.88-15.74,11.75-23.64,1.75-3.57,3.24-7.27,5.07-10.8,12.17-23.43,22.58-47.73,35.25-70.9a7.42,7.42,0,0,0,.79-3.83q-.06-21.18-.14-42.37c-1.65-2.18-1.45-4.43-.3-6.73,3.52-.67,2.6,2.28,2.71,3.77.36,5,.14,10,.14,15,0,9.14,0,18.29,0,27.44,0,1.59-.51,3.32.94,4.95,7.5-3.86,13-10.82,20.9-14,2.47.12,2.45,1.76,2.1,3.54a19.34,19.34,0,0,1-2,5.08c-8,15.34-14.87,31.19-22.75,46.57-8.87,17.29-16.78,35-25.61,52.36l-31.78,24.36A20.07,20.07,0,0,1,191.94,583.63Z" />
            <path class="cls-14"
                d="M453,650.9c-.21-1.95.78-3.52,1.59-5.16,11.84-24,23.74-48,35.5-72.08,5.76-11.79,11.27-23.7,16.89-35.55l18.75-1.26c2.4.26,2,1.54,1.25,3.13-1.56,3.3-2.91,6.71-4.52,10q-19.64,39.85-39.33,79.69c-2.93,6-5.86,12-8.41,18.08-1.11,2.67-2.59,3.34-5.24,3.25C464,650.79,458.48,650.91,453,650.9Z" />
            <path class="cls-15"
                d="M358,650.9c4.11-8.89,8.05-17.85,12.36-26.64q20-40.78,40.2-81.45c.74-1.49,1.61-2.94,1.42-4.7l7.08.11c3.17,1.52,6.53.56,9.79.68,2.68.1,3.22.91,2.05,3.3-2.55,5.22-4.87,10.55-7.44,15.76C410.33,584.65,397.09,611.29,384,638c-2,4.12-4.4,8.18-5,12.88l0,.05A91.91,91.91,0,0,1,358,650.9Z" />
            <path class="cls-16"
                d="M282,526.75c-9.82,7.65-19.67,15.27-30,22.28-2.34-3-.62-5.72.72-8.31,8.86-17.13,16.62-34.81,25.47-51.94,6.65-12.85,12.44-26.11,19-39a18.44,18.44,0,0,0,2.23-7.09c.47-1.91,1.94-3,3.38-4.09,6-4.63,12.12-9.08,18.31-13.44,2.78-2,5.71-3.4,9.11-1.32,1.25,3.25-.68,5.83-2,8.41-11.78,23.11-22.58,46.7-34.38,69.79C289.68,510.16,286.33,518.68,282,526.75Z" />
            <path class="cls-17"
                d="M248.11,424.62c-.07,2.47-.15,4.95-.23,7.42-.5.43-1.19.76-1.46,1.3q-11.28,22.76-22.48,45.55-4,8-7.9,16.09-9.94,20.36-19.89,40.71c-.92,1.86-1.4,4.27-4.24,4.27-.36-14.32-.89-28.64,0-43,11.06-23.76,23-47.09,34.28-70.77.65-1.37,1.33-2.69,2.91-3.22,4.94-1,9.91-.49,14.86-.41C245.56,422.62,247.36,422.66,248.11,424.62Z" />
            <path class="cls-14"
                d="M540,473c-.2-1.94.75-3.53,1.56-5.17q17.64-35.76,35.26-71.54c4.37-8.93,7.77-18.34,13.56-26.55a6.13,6.13,0,0,0,.59-3.35q0-20.71-.13-41.41,0-18,0-35.93c-1.74-1.93-1.41-4.33-1.44-6.6-.09-7.11,0-14.21.06-21.31-.17-7.36-.07-14.73.06-22.09-.32-8,0-16-.07-24-.11-9-.15-18,.07-26.94-.29-7.37-.1-14.75,0-22.12-.31-11.32-.09-22.64-.07-34-.18-6.09-.09-12.17,0-18.25,0-2.11-.15-4.34,1.73-5.94a48.26,48.26,0,0,1,.48,4.91q0,139.84-.06,279.68c-.08,35.34-15.81,61.83-47,78.89C543.13,472.14,541.78,473.25,540,473Z" />
            <path class="cls-18"
                d="M299.78,442.9c2.06,2.18.08,4-.7,5.77-3.27,7.27-6.7,14.47-10.22,21.62q-17.58,35.82-35.32,71.56a13.12,13.12,0,0,0-1.49,7.18Q238.51,560.1,224,570a10.41,10.41,0,0,1,1.33-5.73q14.56-29.52,29.06-59.08,8.77-17.91,17.42-35.88c.92-1.93,2.55-3.89,1.12-6.31a2.18,2.18,0,0,1,1-2.54c7.43-5.44,14.53-11.31,22.1-16.55A4.19,4.19,0,0,1,299.78,442.9Z" />
            <path class="cls-19"
                d="M591.11,107.88l-.29,24.26c-12.51,24.23-23.74,49.08-36.19,73.34-4.63,9-8.39,18.46-13.17,27.41a22.81,22.81,0,0,1-3.14,5.08c-1.35,1.47-2.83,2.63-4.29,0-.59-11.09-3-22.15-.68-33.29a10.71,10.71,0,0,0,4.9-5.25q19.14-39.75,38.77-79.27c2.29-4.61,4.63-9.2,6.59-14,1.45-3.52,3.08-7,6.41-9.29C591.37,100.48,591.16,104.19,591.11,107.88Z" />
            <path class="cls-19"
                d="M379.08,538.22a3.88,3.88,0,0,0,2.8.75c7.47.3,7.43.28,4,7.23-16.18,33-32.73,65.77-48.15,99.1-2.94,6.34-6.65,5.28-11.05,5.77-2.3,0-4.63.25-6.78-.88-1.42-2-.52-3.87.41-5.63,3.27-6.2,5.71-12.77,8.92-19,13-25.18,24.63-51,37.65-76.14,2-3.81,2.52-8.38,6.1-11.31Z" />
            <path class="cls-20"
                d="M316,81c-.19-1.95.85-3.5,1.65-5.14q11.52-23.5,23-47A34.36,34.36,0,0,0,342,25.07l32,0c1.59,2,.46,3.79-.39,5.54-7.66,15.76-15,31.69-23.07,47.25-.91,1.75-1.68,3.66-3.86,4.29-8.89.66-17.78.23-26.66.26C318.54,82.45,317,82.32,316,81Z" />
            <path class="cls-21"
                d="M282,526.75c.09-5.58,3.38-10,5.63-14.72,12.84-26.65,26.06-53.1,39.18-79.62a34.45,34.45,0,0,0,3.18-8.33c5.77-3,11.83-1.45,17.8-1.1,3.23,1.64,1.55,4,.61,5.92-3.57,7.3-6.73,14.79-10.42,22.05-8.58,16.85-17,33.77-24.6,51.11a14.93,14.93,0,0,1-1.31,2.12C302.42,512.16,292.19,519.42,282,526.75Z" />
            <path class="cls-22"
                d="M590,96.93c-2.77,4.86-5.14,9.92-7.58,15-13.28,27.37-26.84,54.59-40.36,81.84-1.76,3.56-2.7,7.5-5.27,10.68-1.41,1.74-1.72.84-2-.63a3.65,3.65,0,0,1-1.17-2.67c.15-11.08-1.81-22.09-1.13-33.19a7,7,0,0,1,.91-3.31c.93-1,1.67-.77,2.22.4.72,1.55.36,3.28,1,5.91,3.86-7.71,7.63-14.58,10.78-21.72,3.56-8.07,7.52-15.94,11.53-23.78,7-13.62,13.08-27.65,20.09-41.25,1.44-2.79,2.57-5.78,4.91-8A54.1,54.1,0,0,1,590,96.93Z" />
            <path class="cls-23"
                d="M583.94,76.15c.29,3.14-2.17,5.11-3.37,7.58Q559.93,126.36,539,168.86c-.82,1.68-1.28,3.69-4.2,5.48V163.8a4.79,4.79,0,0,1-1.3-3.67c.36-10.15-1.6-20.21-1.1-30.35.11-2.11-.21-4.41,2-5.85,3.16,2,1.66,5.25,2,8a23.6,23.6,0,0,1-.42,5.43C548,113.44,559.17,89,571.52,65.24c.89-1.72,1.46-3.77,3.63-4.49A47.78,47.78,0,0,1,583.94,76.15Z" />
            <path class="cls-22"
                d="M373,538.11c-5,13.26-12.05,25.53-18.2,38.24q-16.71,34.57-33.56,69.09a10.18,10.18,0,0,0-1.32,4.75A43.84,43.84,0,0,1,304.84,646c12.75-24.59,24.57-49.63,36.6-74.57,3.1-6.42,6.38-12.76,9.5-19.17,1.16-2.37,2.57-4.65,3.05-7.31C359.11,539.29,365.27,536.5,373,538.11Z" />
            <path class="cls-24"
                d="M316,81h32c2-1.57,4.32-1.45,6.62-1.44,6.1,0,12.2-.18,18.29.1,8-.16,16-.23,24,0,7.34-.15,14.67-.22,22,0,7.31-.15,14.61-.21,21.91,0,8.32-.17,16.63-.12,24.94,0,7.13.3,14.28,0,21.41.2,3.54.11,5.31-1.46,6.82-4.53,7.11-14.45,14.26-28.89,21.13-43.45,1-2.08,1.77-4.34,3.83-5.72a56.06,56.06,0,0,1,19,5.22c1.45,1.78.47,3.46-.25,5.13C531.43,50.79,524,64.59,517.13,78.62c-1.23,2.49-2.85,4.52-5.88,4.86a51.2,51.2,0,0,1-7,.25q-195.85,0-391.72,0c-3.19,0-6.74,1-9.42-1.89,1.82-1.28,3.88-.68,5.82-.68q100.31,0,200.6,0C311.69,81.08,313.85,81,316,81Z" />
            <path class="cls-25"
                d="M354,545c2.09,1.8.28,3.37-.43,4.83-10.27,21-20.63,42-30.92,62.94-4.81,9.82-9.51,19.69-14.31,29.52-.77,1.56-1.14,3.61-3.49,3.76A39.09,39.09,0,0,1,292,639.94c-.1-2.11,1-3.81,1.92-5.56,10.56-20.47,19.93-41.51,30.52-62A22.65,22.65,0,0,0,327,565C336,558.24,344.59,551.08,354,545Z" />
            <path class="cls-26"
                d="M228,424.11a64.7,64.7,0,0,1-2.35,6.52q-15.1,30.89-30.35,61.69c-.86,1.74-1.29,3.85-3.43,4.68-.09-3.65-.39-7.31-.2-10.95.21-3.95-1-5.37-5.27-5.34-26.12.23-52.24.14-78.35.09-2.79,0-5.66.54-8.36-.71l21.32-.19c1.94-1.64,4.3-1.48,6.58-1.48,8.06,0,16.12-.1,24.16,0,6.8.35,13.62.05,20.43.19a5.68,5.68,0,0,0,5.87-3.62c7-14.86,15-29.26,21.72-44.31,1.25-2.81,2-6.07,5.17-7.68,6.51-1.16,13.05-.52,19.58-.44A4.22,4.22,0,0,1,228,424.11Z" />
            <path class="cls-14"
                d="M694.93,196.12a39.05,39.05,0,0,1-1.39,3.7q-17.16,34.86-34.34,69.71c-2.27,4.61-4.32,9.33-6.5,14-.84,1.82-1.76,3.59-3.72,4.5V246c8-14.95,14.69-30.59,22.43-45.69.76-1.47,1.25-3.09,2.52-4.26Z" />
            <path class="cls-27"
                d="M519,26.1c-4.68,10-9.3,20.09-14.06,30.09-3.55,7.47-7.41,14.81-10.84,22.34-1.09,2.39-2.67,2.58-4.73,2.56L467,81c-1.35-1.56-.64-3.13,0-4.64,7.37-16.46,15.7-32.45,23.77-48.57A11.32,11.32,0,0,1,493,25.1C501.66,24.93,510.37,24,519,26.1Z" />
            <path class="cls-28"
                d="M493,25.1c-2.71,7.72-7,14.65-10.52,22-4.7,9.91-9.53,19.75-14.31,29.62A8,8,0,0,0,467,81l-26,0c-1.49-1.77-.5-3.46.25-5.08,7.29-15.95,15.24-31.58,23.09-47.26A13.06,13.06,0,0,1,467,25.07Z" />
            <path class="cls-29"
                d="M373,81l-25,0c1.36-3,2.65-6.07,4.09-9q10.25-21.06,20.56-42.1c.74-1.5,1.53-3,1.34-4.72q12.5-.63,25,0c1.2,1.46.37,2.85-.21,4.2-7.35,17.13-16.64,33.32-24.4,50.26C374.11,80.14,373.47,80.48,373,81Z" />
            <path class="cls-12"
                d="M428.12,480.6l-84,.08c.7-2.37,2.81-2,4.51-2.13a98.45,98.45,0,0,1,10.45,0c5.29-.13,10.57-.2,15.85,0,4.93-.1,9.86-.19,14.78,0,4.11,0,8.22-.1,12.33,0s8.29.06,12.44.12c2.67,0,4.21-1.11,5.3-3.58,7.28-16.57,16.63-32.14,23.54-48.89a5,5,0,0,1,2.41-3A77,77,0,0,1,466.9,423c2.58,1.23,1.71,3.28,1.12,5.15a52.41,52.41,0,0,1-3.79,8.15c-6.68,12.86-12.65,26.06-19,39.06-.93,1.88-1.44,4.17-3.76,5.05C437,480.58,432.55,480.27,428.12,480.6Z" />
            <path class="cls-26"
                d="M373,81c2.54-8.86,7.63-16.54,11.49-24.79,4.85-10.36,10.74-20.22,14.5-31.09h24c1.49,1.75.61,3.47-.18,5.09-7.7,15.78-15.89,31.31-23.1,47.32A8.84,8.84,0,0,1,397,81Z" />
            <path class="cls-30"
                d="M312.09,504.18c-.14-2.94,1.1-5.48,2.33-8,8.67-17.71,17.41-35.38,26-53.11,3-6.24,5.73-12.64,8.58-19,5.45-3.06,11.2-1.48,16.87-1.12,2.41,1,2.25,3,1.74,5.05a20.75,20.75,0,0,1-2,4.56c-8.7,16.46-16.08,33.57-24.63,50.1C331.56,490.12,322,497.41,312.09,504.18Z" />
            <path class="cls-17"
                d="M397,81c7-17.08,15.89-33.27,24-49.84.93-1.92,2.26-3.73,2-6.06a196.9,196.9,0,0,1,22,0c1.2,1.46.36,2.85-.22,4.19-7.36,17.12-16.63,33.32-24.4,50.24-.28.61-.91,1-1.38,1.43Z" />
            <path class="cls-31"
                d="M419,81c2.2-8.1,6.87-15.07,10.38-22.56,5.19-11.11,11.51-21.68,15.62-33.3l22,0c-2.32,7-6.26,13.18-9.39,19.78-5.06,10.65-10.27,21.24-15.42,31.85A7.93,7.93,0,0,0,441,81Z" />
            <path class="cls-32"
                d="M327,565c1.65,1.43,1,3,.22,4.52q-17.1,34.71-34.23,69.41a5,5,0,0,1-1,1.06,49.83,49.83,0,0,1-12.8-9.07c5.69-12.76,11.73-25.35,17.95-37.86,1.1-2.22,2.52-4.38,1.87-7.07Z" />
            <path class="cls-30"
                d="M512.79,82.18c1.59-.55,2.15-2,2.8-3.32q10.8-22.1,21.56-44.22a16.28,16.28,0,0,0,.81-3.32c6.47,1.88,11.86,5.61,17,9.8.8,1.78-.24,3.22-1,4.66-7,13.87-13.2,28.13-20.43,41.88-1.05,2-1.77,4.38-4.42,5A4.84,4.84,0,0,1,525.72,91a28,28,0,0,0-10.3-6.38C514.24,84.25,512.83,83.88,512.79,82.18Z" />
            <path class="cls-33"
                d="M341,482.7c-.23-2.07.57-3.86,1.46-5.67,7.67-15.6,15.28-31.22,23-46.81,1-2,1.86-3.89,1.59-6.14,5.45-3,11.19-1.46,16.85-1.09,3.54,2,1.67,4.59.58,6.84-4.4,9.13-9,18.15-13.54,27.22-2.66,5.35-5.44,10.64-7.68,16.2-1,2.44-2,4.95-4.2,6.67-4.95.49-10-.77-14.89.76Z" />
            <path class="cls-33"
                d="M528.55,92.25c2.21-.72,2.72-2.8,3.58-4.55Q543.58,64.42,555,41.12A27.22,27.22,0,0,1,567.17,52a6.68,6.68,0,0,1-.94,3.32C557.42,73,549.31,91,540.1,108.51c-1.13,2.14-1.82,5.25-5.5,4.43C532.8,106,530.49,99.17,528.55,92.25Z" />
            <path class="cls-8"
                d="M673.93,196.09a7.44,7.44,0,0,1-.91,3.82q-10.31,21-20.54,42.07A7.87,7.87,0,0,1,649,246c-.05-15.48-.05-31-.21-46.44,0-2.81.86-3.81,3.7-3.73C659.62,196.08,666.78,196,673.93,196.09Z" />
            <path class="cls-32"
                d="M534.82,113.09c2.43-.93,3.24-3.18,4.26-5.26q12.58-25.65,25.19-51.3c.79-1.6,1.22-3.48,2.9-4.54a.94.94,0,0,1,.78.3c.5,3.6-2.79,5.68-3.32,8.44,1.85-1.75,1.3-5.84,5.1-6.58l3.22,4c.69,2-.45,3.54-1.2,5.17C564,80.07,555.67,96.52,547.39,113c-2.83,5.65-4.93,11.64-8.1,17.12-.88,1.53-1.33,4-4.18,2.95-.09-3.09-.19-6.18-.28-9.27A10.47,10.47,0,0,1,534.82,113.09Z" />
            <path class="cls-34"
                d="M299,585.94c2.24.3,2.17,1.61,1.39,3.2q-10,20.42-20.06,40.82c-.2.4-.76.61-1.15.91-5.82-4.28-10.07-10-14.44-15.6-1.78-2.3-.87-3.28,1-4.64Q282.43,598.35,299,585.94Z" />
            <path class="cls-32"
                d="M535.11,133.07c4.17-2.52,5-7.22,6.75-11.11,3.83-8.64,8.3-16.94,12.39-25.43,6.18-12.82,12.46-25.59,18.7-38.38,1.33.36,1.79,1.45,2.2,2.6q-19.47,39.39-38.93,78.79l-1.11-.3Z" />
            <path class="cls-8"
                d="M428.12,480.6c4.57-1.41,9.26-.18,13.87-.68,3.26-2.38,7-1.35,10.59-1.49a89.89,89.89,0,0,1,9.43,0c6.28-.14,12.57-.11,18.85-.07,2.15,0,4.34,0,6.12,1.51l26.23.14a13,13,0,0,1-2.87.65Q469.23,480.7,428.12,480.6Z" />
            <path class="cls-10" d="M358,650.9l21,.05,0,.69H338.09C344.68,650.05,351.38,651.37,358,650.9Z" />
            <path class="cls-32"
                d="M569.73,54.15c-2.7,1.68-2.54,5.34-5.61,7.79-.07-4.25,3.12-6.51,3.83-9.65A2,2,0,0,1,569.73,54.15Z" />
            <path class="cls-14" d="M437.07,651.63c4.91-1.52,9.95-.34,14.91-.68,0,.23,0,.46,0,.68Z" />
            <path class="cls-1"
                d="M534.82,113.09c0,3.57,0,7.14,0,10.71-1.16,13.34-.07,26.67,0,40-1.16,13.32-.06,26.65,0,40-1.18,11.76-.15,23.52,0,35.28a4,4,0,0,1,1.27,3.6c-1.64,10.41.36,20.77.35,31.15a54.57,54.57,0,0,1-.37,10.06,61.32,61.32,0,0,0,0,20.32,113.39,113.39,0,0,1,.21,18.15,8.68,8.68,0,0,1-.25,1.76,63.33,63.33,0,0,0,0,19.77,21.32,21.32,0,0,1,.4,3.56c.09,5.45.43,10.91-.29,16.35a61.36,61.36,0,0,0,0,20.37c.13,4.24,1.66,8.62-1.25,12.55-1.18,5.88-2.62,11.62-6.5,16.47-4.81,6-11.32,9-18.57,10.73-1.48,1.69-3.53,1.6-5.48,1.62-5.43.05-10.86.17-16.28,0-5,.22-9.92.1-14.87.07-1.83,0-3.65-.15-5.14-1.43l-23,0c-5.1,2.73-10.56,1-15.86,1.37-4.38.09-8.75.18-13.13,0q-7.51.23-15,0c-5.33-.34-10.83,1.35-16-1.35l-18,0-18,0-19,0c-2.43-.18-4.81-.67-7.07,1.09-7.66,6-15.43,11.83-23.16,17.73-9.42,6-18.15,13-26.81,20.06l-24,17.35c-.12-2.4-.28-4.12-.29-5.84,0-14.81,0-29.63,0-44.45,0-1.8.41-3.67-.51-5.4-6.65-1.55-13.38-.45-20.07-.51l-24,0c-1.65,1.38-3.64,1.48-5.64,1.48-6.46,0-12.91.18-19.37-.1-8.78.27-17.56.11-26.33.11-2,0-4-.05-5.65-1.46-13-.06-26-.15-39-.18-18.39-.06-30.23-11.89-30.23-30.34q0-140.86,0-281.72c0-16.68,8.88-27.22,25.24-30.07q88.19,0,176.37.06,112.92,0,225.83,0c2.49,0,5,.21,7.48.33a35.71,35.71,0,0,1,15.76,10.07C533,98.48,534.4,105.64,534.82,113.09Z" />
            <path class="cls-20"
                d="M147.05,424.11l32,0c1.47,2.24.13,4.24-.79,6.07-7.61,15.36-14.55,31-22.5,46.23a11,11,0,0,1-2.71,3.53h-32c-.19-2.13,1-3.81,1.86-5.58q11.49-23.47,23-47A33.1,33.1,0,0,0,147.05,424.11Z" />
            <path class="cls-35"
                d="M534.82,396.7a63.12,63.12,0,0,1,0-12.37c-.85-4.61-.17-9.27-.39-13.89.6-3.91,3.36-6.78,5-10.19,15.2-31.05,30.06-62.27,45.59-93.15,1.24-2.48,1.74-6,5.73-6v28c-3.63,2.81-4.52,7.2-6.41,11Q564.19,341.06,544,382c-2.42,4.92-4.62,9.94-7,14.89C536.22,398.52,535.33,399.27,534.82,396.7Z" />
            <path class="cls-36"
                d="M488,424.08l21.77-.18c3.9-.09,2.84,1.87,1.77,4q-11.4,23.18-22.71,46.4c-.87,1.78-2,3.45-1.83,5.58H462c-.88-1.91,0-3.61.78-5.21,8-16.34,16.33-32.56,24-49.1A7,7,0,0,1,488,424.08Z" />
            <path class="cls-12"
                d="M534.83,274.07c-.47-11.67-1-23.34,0-35,3.41-.9,4.14-4.06,5.41-6.64q23.29-47.38,46.49-94.83c1-2.07,1.81-4.33,4.1-5.45q0,17,0,34c-14.8,29.09-28.63,58.66-43.34,87.79-2.7,5.35-4.71,11-7.71,16.24C538.67,272,538,274.63,534.83,274.07Z" />
            <path class="cls-15"
                d="M534.82,323.05a142.31,142.31,0,0,1,0-18.7c-.79-2.41-.21-4.9-.39-7.34,3.43-6.63,6.41-13.5,9.77-20.15,13-25.69,25-51.86,38.14-77.46,1.38-2.67,2.16-5.62,3.76-8.14,1-1.63,1.62-4.34,4.67-3.19q0,13.53,0,27.05c-12,23.21-22.72,47.07-34.69,70.31-5.56,10.81-10.07,22.12-15.9,32.8C539,320.4,538.38,323.42,534.82,323.05Z" />
            <path class="cls-37"
                d="M534.82,323.05c2.6-1.05,3.4-3.52,4.48-5.74Q563,269,586.71,220.58c1-2.08,1.81-4.34,4.1-5.46q0,12,0,23.94c-13.19,25.95-25.5,52.34-38.54,78.37-4.39,8.76-8.42,17.73-12.92,26.45-.87,1.69-1.38,4.5-4.54,3.14,0-.89,0-1.78,0-2.68a111.29,111.29,0,0,1,0-20.65A.42.42,0,0,1,534.82,323.05Z" />
            <path class="cls-38"
                d="M534.82,347c2.84-.24,3-2.85,3.92-4.64q24.33-49.42,48.54-98.91c.82-1.66,1-4,3.54-4.41v22c-.93.92-2.18,1.68-2.73,2.79-5.48,11-10.84,22-16.23,33.06-1,1.93-1.84,3.9-2.79,5.83l-29.88,60.74c-1,2.09-1.87,4.29-4.08,5.49-1.09-1.73-.7-3.53-.24-5.33A111.62,111.62,0,0,1,534.82,347Z" />
            <path class="cls-39"
                d="M590.82,188.07c-2.58.72-3.34,3.08-4.34,5.08-2.29,4.59-4.29,9.33-6.55,13.94q-17.68,36-35.42,71.9c-2.19,4.45-4.16,9-6.32,13.5-.68,1.42-1,3.31-3.07,3.54-1.21-4.09-.72-8.2-.25-12.32a37.93,37.93,0,0,1,0-9.64c5.15-3.77,6.09-10.05,9-15.14.65-1.14.94-2.48,1.52-3.66q20.92-42.4,41.92-84.78c.83-1.66,1-4,3.53-4.4Q590.81,177.08,590.82,188.07Z" />
            <path class="cls-29"
                d="M153.05,479.91c.56-3,2.36-5.46,3.63-8.14q10.9-22.9,21.86-45.78a11,11,0,0,0,.51-1.91h25c-6,15.44-14.91,29.59-21.17,44.87-3.75,9.13-8.83,12.78-18.4,11.12C160.76,479.43,156.86,479.93,153.05,479.91Z" />
            <path class="cls-40"
                d="M488,424.08c-1.33,6.78-5.3,12.45-8,18.63-5.55,12.61-12.67,24.48-18,37.22H442c6.31-14.61,13.42-28.83,20.54-43.06,2.07-4.13,4.53-8.12,5.45-12.75Z" />
            <path class="cls-19"
                d="M429,424.11l16,0c-.42,3.87-2.28,7.22-3.9,10.64-6.8,14.41-14.83,28.22-20.84,43-.81,2-2,2.29-3.8,2.27-4.49-.07-9-.06-13.46-.08-1.49-1.76-.57-3.47.23-5.07,7.81-15.69,14.93-31.71,23-47.24A10.1,10.1,0,0,1,429,424.11Z" />
            <path class="cls-41"
                d="M385,424.11l16,0c1.49,1.76.56,3.47-.23,5.07-7.73,15.74-15.84,31.28-23.08,47.25a9.55,9.55,0,0,1-2.69,3.51H359c6.52-16.55,15.35-32,23-48C383.21,429.41,385.13,427.14,385,424.11Z" />
            <path class="cls-42"
                d="M375,479.91c6.87-16.57,15.37-32.37,23.24-48.47,1.15-2.35,2.92-4.5,2.76-7.36h15c1.5,1.76.54,3.45-.22,5.08-7.38,15.9-15.16,31.61-23.08,47.25a10.76,10.76,0,0,1-2.69,3.51Z" />
            <path class="cls-22"
                d="M390,479.92c2.13-6.33,5.67-12,8.53-18,5.38-11.24,10.86-22.42,16.31-33.62a7.8,7.8,0,0,0,1.15-4.26l13,0c-1,2.27-1.9,4.58-3,6.81q-10.78,22.15-21.64,44.29c-.73,1.49-1.56,3-1.38,4.7Z" />
            <path class="cls-6" d="M534.87,363.68l.24,5.33-.24,15.31A79.23,79.23,0,0,1,534.87,363.68Z" />
            <path class="cls-38" d="M534.87,323.69v20.65A79.3,79.3,0,0,1,534.87,323.69Z" />
            <path class="cls-38"
                d="M534.87,283.71q.12,6.15.25,12.32c-.08,2.77-.17,5.54-.25,8.32A78.79,78.79,0,0,1,534.87,283.71Z" />
        </g>
    </g>
</svg>