<?xml version="1.0" encoding="UTF-8"?>
<svg id="Layer_2" data-name="Layer 2" xmlns="http://www.w3.org/2000/svg" xmlns:xlink="http://www.w3.org/1999/xlink" viewBox="0 0 799.91 741.56">
  <defs>
    <style>
      .cls-1 {
        fill: url(#linear-gradient);
      }

      .cls-2 {
        fill: #fff;
      }

      .cls-3 {
        fill: url(#linear-gradient-2);
      }
    </style>
    <linearGradient id="linear-gradient" x1="701.08" y1="846.13" x2="701.08" y2="276.57" gradientTransform="translate(247.98 1166.32) rotate(-45.99) scale(1 -1.08)" gradientUnits="userSpaceOnUse">
      <stop offset="0" stop-color="#00a2ff"/>
      <stop offset="1" stop-color="#00fe9d"/>
    </linearGradient>
    <linearGradient id="linear-gradient-2" x1="784.33" y1="719.45" x2="784.33" y2="149.1" gradientTransform="translate(65.16 1108.99) rotate(-36.7) scale(1 -.99)" gradientUnits="userSpaceOnUse">
      <stop offset="0" stop-color="#00a6ff"/>
      <stop offset="1" stop-color="#00ff95"/>
    </linearGradient>
  </defs>
  <g id="Layer_1-2" data-name="Layer 1">
    <path class="cls-1" d="M170.8,456.56v113c5.69-1.89,10.25-6.06,15-9.63l22-16.5c25.96-19.47,52.04-38.77,78-58.25l25-18.75c4.04-3.03,8.25-7.15,13-9.02,4.46-1.75,10.29-.85,15-.85h119c11.21,0,22.84,.9,34-.17,21.49-2.05,43.08-11.27,57.41-27.85,23.17-26.79,22.59-57.61,22.59-90.98V117.56c0-30.56,1.12-60.88-19.47-86-13.35-16.28-32.73-27.31-53.53-30.56-8.42-1.32-17.49-.44-26-.44H111.8c-13.29,0-27.92-1.7-41,.8C37.49,7.74,10.96,32.64,2.69,65.56c-3.91,15.58-1.9,33.03-1.9,49v219c0,16.2-2.06,33.99,.44,50,4.63,29.66,24.71,55.3,52.56,66.69,16.78,6.86,34.26,6.31,52,6.31h65Z"/>
    <path class="cls-2" d="M228.8,399.56v56c7.23-3.6,13.55-9.29,20-14.13l35-26.25c6.58-4.93,14.75-13.68,23-15.35,5.05-1.02,10.86-.28,16-.28h129c18.05,0,43.89,5.05,56.61-11,8.73-11.02,5.39-28.82,5.39-42V117.56c0-15.35,4.47-38.45-6.33-50.96-8.62-9.98-20.72-9.04-32.67-9.04H108.8c-10.27,0-23.22-2.09-33,1.39-17.79,6.33-18,22.74-18,38.61V362.56c0,9.86-.46,18.99,6.33,26.98,11.31,13.31,31.13,10.02,46.67,10.02h118Z"/>
    <path class="cls-3" d="M628.8,171.56v140c0,25.3,2.28,51.92-1.3,77-5.53,38.8-26.31,73.6-57.7,97.1-22.13,16.57-48.72,25.13-76,27.73-12.79,1.22-26.15,.17-39,.17h-96c-4.82,0-10.26-.69-15,.28-4.57,.94-8.37,4.62-12,7.35l-19,14.25c-23.27,17.45-46.36,35.19-70,52.13,2.98,7.71,9.76,14.31,16,19.56,16.02,13.5,36.14,20.44,57,20.44h144c4.99,0,11.23-.97,16,.73,6.17,2.2,11.8,8.02,17,11.9,10.68,7.97,21.47,15.79,32,23.95,19.07,14.77,38.81,28.68,58,43.31,15.03,11.46,29.96,24.12,46,34.12v-114h59c10.88,0,22.17,.86,33-.17,21.36-2.04,41.1-11.28,55.96-26.83,25.29-26.45,23.04-60.16,23.04-94v-210c0-36.03,3.23-73.36-25.09-100.83-13.57-13.16-32.04-22.17-50.91-24-11.15-1.08-22.8-.17-34-.17h-61Z"/>
  </g>
</svg>