<?xml version="1.0" encoding="utf-8"?>
<svg width="840" height="820" xmlns="http://www.w3.org/2000/svg">
  <defs>
    <linearGradient gradientUnits="userSpaceOnUse" x1="541.556" y1="211.642" x2="541.556" y2="782" id="gradient-0" gradientTransform="matrix(0.801748, -0.597662, 0.590171, 0.7917, -237.051255, 242.995301)">
      <stop offset="0" style="stop-color: rgb(0, 166, 255);"/>
      <stop offset="1" style="stop-color: rgb(0, 255, 149);"/>
    </linearGradient>
    <linearGradient gradientUnits="userSpaceOnUse" x1="306.106" y1="40.437" x2="306.106" y2="610" id="gradient-1" gradientTransform="matrix(0.694807, -0.719195, 0.780005, 0.753553, -166.533509, 272.864428)">
      <stop offset="0" style="stop-color: rgb(0, 162, 255);"/>
      <stop offset="1" style="stop-color: rgb(0, 254, 157);"/>
    </linearGradient>
  </defs>
  <path style="stroke: none; fill: url(#gradient-1);" d="M191 497L191 610C196.692 608.112 201.246 603.939 206 600.373L228 583.873C253.962 564.402 280.038 545.098 306 525.627L331 506.873C335.043 503.841 339.252 499.719 344 497.854C348.462 496.101 354.291 497 359 497L389 497L478 497C489.207 497 500.843 497.896 512 496.83C533.495 494.776 555.077 485.555 569.41 468.985C592.58 442.199 592 411.378 592 378L592 291L592 158C592 127.441 593.125 97.1181 572.535 72C559.189 55.7177 539.807 44.6888 519 41.439C510.577 40.1235 501.511 41 493 41L446 41L208 41L132 41C118.708 41 104.08 39.3019 91 41.8048C57.6915 48.1788 31.1634 73.079 22.8951 106C18.9815 121.582 21 139.029 21 155L21 243L21 374C21 390.201 18.9384 407.989 21.439 424C26.0718 453.662 46.145 479.305 74 490.688C90.7815 497.545 108.258 497 126 497L191 497z"/>
  <path style="fill:#fff; stroke:none;" d="M249 440L249 496C256.228 492.4 262.552 486.709 269 481.873L304 455.627C310.579 450.693 318.749 441.945 327 440.278C332.053 439.257 337.861 440 343 440L374 440L472 440C490.049 440 515.894 445.045 528.61 428.996C537.344 417.972 534 400.177 534 387L534 286L534 158C534 142.645 538.47 119.548 527.671 107.04C519.05 97.0564 506.947 98 495 98L425 98L196 98L129 98C118.73 98 105.78 95.9076 96 99.3881C78.2079 105.72 78 122.129 78 138L78 172L78 359L78 403C78 412.855 77.539 421.992 84.3287 429.985C95.634 443.293 115.463 440 131 440L249 440z"/>
  <path style="stroke: none; fill: url(#gradient-0);" d="M649 212L649 352C649 377.305 651.276 403.918 647.7 429C642.168 467.801 621.394 502.598 590 526.105C567.871 542.674 541.283 551.232 514 553.83C501.208 555.048 487.85 554 475 554L409 554L379 554C374.181 554 368.737 553.306 364 554.279C359.426 555.218 355.63 558.904 352 561.627L333 575.873C309.733 593.324 286.644 611.066 263 628C265.983 635.713 272.764 642.306 279 647.561C295.017 661.058 315.143 667.999 336 668L447 668L480 668C484.994 668 491.232 667.025 496 668.728C502.165 670.929 507.804 676.745 513 680.626C523.676 688.598 534.466 696.414 545 704.575C564.07 719.349 583.813 733.259 603 747.884C618.033 759.343 632.955 772.008 649 782L649 668L708 668C718.879 668 730.169 668.865 741 667.83C762.361 665.789 782.096 656.546 796.961 641C822.247 614.554 820 580.839 820 547L820 337C820 300.974 823.234 263.645 794.911 236.17C781.341 223.007 762.873 213.996 744 212.17C732.848 211.091 721.203 212 710 212L649 212z"/>
</svg>